<svg width="193" height="350" viewBox="0 0 193 350" fill="none" xmlns="http://www.w3.org/2000/svg">
  <g clip-path="url(#clip0_156_392)">
    <path 
      d="M5.07277 322.831L153.384 186.192C156.637 183.211 158.462 179.186 158.462 174.993C158.462 170.799 156.637 166.774 153.384 163.793L5.10495 27.1537C1.85387 24.1539 0.0321799 20.1163 0.0321799 15.9105C0.0321799 11.7046 1.85387 7.66706 5.10495 4.66725C6.69315 3.19007 8.59138 2.0161 10.6878 1.21453C12.7842 0.412957 15.0363 0 17.3115 0C19.5866 0 21.8388 0.412957 23.9352 1.21453C26.0316 2.0161 27.9298 3.19007 29.518 4.66725L177.797 141.277C187.541 150.276 193 162.382 193 174.993C193 187.603 187.541 199.709 177.797 208.708L29.518 345.318C27.9293 346.799 26.0291 347.977 23.9297 348.781C21.8303 349.586 19.5744 350 17.2954 350C15.0163 350 12.7605 349.586 10.6611 348.781C8.56171 347.977 6.66147 346.799 5.07277 345.318C1.82169 342.318 2.11627e-06 338.28 2.11627e-06 334.075C2.11627e-06 329.869 1.82169 325.831 5.07277 322.831Z" 
      fill="#FED11E" 
      stroke="#FED11E" 
      stroke-width="50"
    />
  </g>
  <defs>
    <clipPath id="clip0_156_392">
      <rect width="193" height="350" fill="white" transform="matrix(-2 0 0 1 203 0)"/>
    </clipPath>
  </defs>
</svg>
