<svg width="515" height="515" viewBox="0 0 515 515" fill="none" xmlns="http://www.w3.org/2000/svg">
<path d="M257.5 515C391.813 515 500.695 406.118 500.695 271.806C500.695 137.493 391.813 28.6113 257.5 28.6113C123.188 28.6113 14.3057 137.493 14.3057 271.806C14.3057 406.118 123.188 515 257.5 515Z" fill="#F4900C"/>
<path d="M257.5 486.389C391.813 486.389 500.695 377.507 500.695 243.194C500.695 108.882 391.813 0 257.5 0C123.188 0 14.3057 108.882 14.3057 243.194C14.3057 377.507 123.188 486.389 257.5 486.389Z" fill="#FFCC4D"/>
<path d="M257.5 457.778C368.11 457.778 457.778 368.11 457.778 257.5C457.778 146.89 368.11 57.2222 257.5 57.2222C146.89 57.2222 57.2222 146.89 57.2222 257.5C57.2222 368.11 146.89 457.778 257.5 457.778Z" fill="#FFE8B6"/>
<path d="M257.5 443.472C368.11 443.472 457.778 353.805 457.778 243.194C457.778 132.584 368.11 42.9165 257.5 42.9165C146.89 42.9165 57.2222 132.584 57.2222 243.194C57.2222 353.805 146.89 443.472 257.5 443.472Z" fill="#FFAC33"/>
<path d="M257.5 119.351C257.5 119.351 179.463 156.131 171.681 159.45C163.884 162.754 166.488 168.19 171.695 168.19H342.933C350.972 168.19 349.07 162.053 342.689 158.734C336.309 155.43 257.5 119.351 257.5 119.351Z" fill="#FFAC33"/>
</svg>
