<svg width="512" height="512" viewBox="0 0 512 512" fill="none" xmlns="http://www.w3.org/2000/svg">
<path d="M472.469 389.156L273.237 499.735C263.679 505.04 248.039 505.04 238.482 499.735L39.2488 389.156C34.4698 386.504 32.0808 383.007 32.0808 379.511H29.9648V132.489H479.638V379.511C479.638 383.007 477.249 386.504 472.469 389.156Z" fill="#FED11E"/>
<path d="M479.638 132.489V379.511C479.638 383.008 477.249 386.504 472.47 389.157L273.237 499.735C268.267 502.493 261.654 503.807 255.105 503.694C255.26 379.999 258.776 256.148 254.932 132.488L479.638 132.489Z" fill="#DFBE3C"/>
<path d="M238.481 252.712L39.2491 142.133C29.6911 136.828 29.6911 128.148 39.2491 122.843L238.481 12.2649C248.039 6.95988 263.679 6.95988 273.236 12.2649L472.469 122.844C482.027 128.149 482.027 136.829 472.469 142.134L273.237 252.712C263.679 258.017 248.039 258.017 238.481 252.712Z" fill="#FEDF65"/>
<path d="M391.09 74.1239C391.08 75.2928 390.755 76.4373 390.149 77.4371C389.544 78.4368 388.68 79.2548 387.648 79.8049L148.934 207.05C148.605 207.225 148.262 207.372 147.908 207.488L147.101 207.939V445.409C147.101 446.541 146.806 447.653 146.244 448.635C145.683 449.618 144.874 450.436 143.899 451.011C142.924 451.585 141.816 451.894 140.684 451.909C139.552 451.923 138.437 451.642 137.447 451.093L97.4471 428.892C96.433 428.329 95.5879 427.505 94.9996 426.506C94.4112 425.506 94.101 424.368 94.1011 423.208V192.123C94.1021 188.158 94.9934 184.243 96.7091 180.668C98.4248 177.093 100.921 173.949 104.014 171.468L104.25 171.284C104.774 170.874 105.271 170.513 105.782 170.168C106.541 169.652 107.326 169.176 108.134 168.74L339.874 45.2119C340.832 44.7013 341.902 44.4387 342.987 44.4479C344.072 44.4572 345.137 44.738 346.086 45.2649L387.745 68.3859C388.767 68.9533 389.617 69.7858 390.206 70.7955C390.794 71.8053 391.1 72.9551 391.09 74.1239ZM413.103 174.655C411.591 172.93 409.86 171.41 407.955 170.132C407.83 170.047 407.705 169.962 407.558 169.866C406.939 169.463 406.304 169.086 405.653 168.737L173.914 45.2109C172.957 44.7 171.886 44.4373 170.801 44.4465C169.716 44.4558 168.651 44.7368 167.702 45.2639L126.043 68.3849C125.021 68.9519 124.17 69.7843 123.581 70.7943C122.992 71.8043 122.686 72.9545 122.696 74.1237C122.706 75.2929 123.031 76.4378 123.637 77.4376C124.243 78.4375 125.108 79.2553 126.14 79.8049L364.854 207.05C365.186 207.227 365.53 207.373 365.881 207.489L366.687 207.94V445.41C366.687 446.542 366.982 447.654 367.544 448.636C368.106 449.619 368.914 450.437 369.889 451.012C370.864 451.586 371.973 451.895 373.104 451.91C374.236 451.924 375.352 451.643 376.341 451.094L416.341 428.893C417.355 428.33 418.2 427.506 418.788 426.507C419.377 425.507 419.687 424.369 419.687 423.209V192.123C419.684 185.694 417.344 179.486 413.103 174.655Z" fill="#FFD4DE"/>
<path d="M335.602 137.083C335.602 153.394 315.596 165.232 288.033 165.232C276.792 165.232 266.811 163.261 258.929 159.823C257.922 159.386 256.832 159.177 255.735 159.209C254.638 159.242 253.562 159.516 252.584 160.012C244.369 164.158 233.476 166.574 221.036 166.574C193.473 166.574 173.467 154.736 173.467 138.425C173.467 130.213 178.539 123.136 187.093 118.131C190.463 116.16 191.878 111.953 190.209 108.424C184.112 95.53 184.308 83.433 191.786 75.955C195.659 72.082 200.963 70.035 207.126 70.035C211.456 70.035 216.158 71.058 220.989 72.979C222.845 73.7193 224.918 73.6998 226.759 72.9249C228.601 72.1499 230.064 70.6816 230.833 68.837C235.798 56.986 244.013 49.687 253.863 49.687C263.545 49.687 271.65 56.738 276.639 68.234C278.295 72.05 282.666 73.871 286.511 72.284C291.559 70.201 296.477 69.087 300.993 69.087C308.778 69.087 313.632 72.306 316.333 75.007C323.684 82.358 324 94.171 318.218 106.818C316.596 110.366 318.034 114.564 321.43 116.483C330.312 121.501 335.602 128.7 335.602 137.083Z" fill="#F796AD"/>
</svg>
